<?xml version="1.0" encoding="UTF-8"?>
<svg width="804px" height="322px" viewBox="0 0 804 322" version="1.1" xmlns="http://www.w3.org/2000/svg" xmlns:xlink="http://www.w3.org/1999/xlink">
    <title>Testrack</title>
    <g id="Artboard" stroke="none" stroke-width="1" fill="none" fill-rule="evenodd">
        <g id="testrack-logo" transform="translate(0.000000, -1.000000)" fill="#FFFFFF" fill-rule="nonzero">
            <path d="M641.816212,0.145965549 L329.25627,0.145965549 L395.77888,81.3320036 L641.845402,81.3320036 C685.775427,81.3320036 721.503235,117.06437 721.503235,160.970807 C721.503235,204.877244 685.775427,240.638803 641.845402,240.638803 L526.284624,240.638803 L592.778044,321.824841 L641.816212,321.824841 C730.493566,321.824841 802.678917,249.659474 802.678917,160.970807 C802.678917,72.3113327 730.522755,0.145965549 641.816212,0.145965549 Z" id="Path"></path>
            <path d="M160.891894,240.667996 C116.961868,240.667996 81.2340603,204.93563 81.2340603,161 C81.2340603,117.093563 116.961868,81.3611967 160.891894,81.3611967 L290.843039,81.3611967 L224.29124,0.145965549 L160.891894,0.145965549 C72.2145402,0.145965549 0.0583787714,72.3113327 0.0583787714,161 C0.0583787714,249.71786 72.2145402,321.854034 160.891894,321.854034 L487.842203,321.854034 L421.348782,240.667996 L160.891894,240.667996 Z" id="Path"></path>
        </g>
    </g>
</svg>
